<?xml version="1.0" standalone="no"?>
<!DOCTYPE svg PUBLIC "-//W3C//DTD SVG 1.1//EN" "http://www.w3.org/Graphics/SVG/1.1/DTD/svg11.dtd" >
<svg xmlns="http://www.w3.org/2000/svg">
  <metadata>Created by iconfont</metadata>
  <defs>
  <font id="iconfont" horiz-adv-x="1024">
    <font-face
      font-family="iconfont"
      font-weight="400"
      font-stretch="normal"
      units-per-em="1024"
      ascent="896"
      descent="-128"
    />
      <missing-glyph />
      
      <glyph glyph-name="jiantou_zuo-copy1" unicode="&#59117;" d="M485.888 542.2080000000001L222.208 278.528c-14.336-14.336-14.336-38.4 0-52.736 14.336-14.336 38.4-14.336 52.736 0l237.056 237.056 237.056-237.056c14.336-14.336 38.4-14.336 52.736 0 14.336 14.336 14.336 38.4 0 52.736l-263.68 263.68c-14.336 14.336-37.888 14.336-52.224 0z"  horiz-adv-x="1024" />
      
      <glyph glyph-name="jiantou" unicode="&#59034;" d="M967.168 358.912c0 8.192-3.584 15.36-8.704 20.48L737.28 603.136c-10.752 11.264-29.184 11.264-40.448 0-11.264-10.752-11.264-29.184 0-40.448l174.08-176.128H85.504c-15.872 0-28.672-12.8-28.672-28.672 0-15.872 12.8-28.672 28.672-28.672h784.384l-175.104-173.056c-11.264-10.752-11.264-29.184 0-40.448 5.632-5.632 12.8-8.192 19.968-8.192s14.336 2.56 19.968 8.192l224.256 221.696c4.608 6.144 8.192 13.312 8.192 21.504z"  horiz-adv-x="1024" />
      
      <glyph glyph-name="fenlei" unicode="&#59010;" d="M191.488 26.112c0-35.328-28.672-64-64-64s-64 28.672-64 64 28.672 64 64 64 64-28.672 64-64zM191.488 384.512c0-35.328-28.672-64-64-64s-64 28.672-64 64S92.16 448.512 127.488 448.512 191.488 419.84 191.488 384.512zM191.488 742.912c0-35.328-28.672-64-64-64s-64 28.672-64 64S92.16 806.912 127.488 806.912 191.488 778.24 191.488 742.912zM895.488 90.112H319.488c-35.328 0-64-28.672-64-64s28.672-64 64-64h576c35.328 0 64 28.672 64 64s-28.672 64-64 64zM895.488 448.512H319.488c-35.328 0-64-28.672-64-64s28.672-64 64-64h576c35.328 0 64 28.672 64 64s-28.672 64-64 64zM319.488 678.912h576c35.328 0 64 28.672 64 64s-28.672 64-64 64H319.488c-35.328 0-64-28.672-64-64s28.16-64 64-64z"  horiz-adv-x="1025" />
      
      <glyph glyph-name="jiantou_zuo-copy" unicode="&#59111;" d="M670.208 410.112L406.528 673.792c-14.336 14.336-38.4 14.336-52.736 0-14.336-14.336-14.336-38.4 0-52.736l237.056-237.056-237.056-237.056c-14.336-14.336-14.336-38.4 0-52.736 14.336-14.336 38.4-14.336 52.736 0l263.68 263.68c14.336 14.336 14.336 37.888 0 52.224z"  horiz-adv-x="1024" />
      
      <glyph glyph-name="jiantou_zuo-copy-copy" unicode="&#59112;" d="M538.112 225.79200000000003L801.792 489.472c14.336 14.336 14.336 38.4 0 52.736-14.336 14.336-38.4 14.336-52.736 0l-237.056-237.056-237.056 237.056c-14.336 14.336-38.4 14.336-52.736 0-14.336-14.336-14.336-38.4 0-52.736l263.68-263.68c14.336-14.336 37.888-14.336 52.224 0z"  horiz-adv-x="1024" />
      
      <glyph glyph-name="zidingyi" unicode="&#58939;" d="M600-60l0.2 0.7h-31.5c-17.5 0-24.6 7.9-24.6 27.4v78.3c0 52.3-42.6 94.9-94.9 94.9s-94.9-42.6-94.9-94.9v-78.3c0-19.5-7.1-27.4-24.5-27.4h-209c-30.3 0-55 24.7-55 55V207.4c0 18.7 8.4 26.4 29.1 26.4h72c52.3 0 94.9 42.6 94.9 94.9 0 52.3-42.6 94.9-94.9 94.9H96.5c-21.5 0-30.7 8.4-30.7 28.3l-0.1 45.4h-0.1V613.9c0.1 30.3 24.7 55 55 55h172v10.2c0 84.2 68.5 152.7 152.7 152.7 38.9 0 76-14.6 104.4-41.2 28.4-26.6 45.4-62.5 48-101.3l0.6-20.4h141.2c30.3 0 55-24.7 55-55v-141.4h10.2c40.8-0.1 79.1-16.2 107.8-45.1 28.7-28.9 44.5-67.3 44.3-108.1-0.1-38.7-14.8-75.6-41.2-103.8-26.4-28.2-62.2-45.2-100.7-47.9l-20.3-0.7V-5c0-30.3-24.7-55-55-55H600z m49.8 57.9H707c13.8 0 25.7 9.4 28.9 22.8l0.1 0.6 0.7 5.7V194.9c0 19.5 8.6 28.1 28.8 28.8l45.3 1.4h0.2c25.3 1.7 48.4 13.2 65 32.3 16.7 19.1 24.9 43.5 23.2 68.8-3.2 46.2-38.8 83.1-84.8 87.9h-0.3l-9.2 0.5h-34.5c-23.6 0-33.7 10.5-33.7 35V581.3c0 16.4-13.3 29.7-29.7 29.7H566.1c-21.1 5.4-24.2 16.4-24.5 25.4l-1.6 48.8v0.2c-3.3 49.6-44.9 88.5-94.7 88.5-48.8 0-89.4-36.6-94.4-85.2v-0.3l-0.5-9.2v-40.4c0-17.4-7.9-25.7-26.4-27.9H153.2c-16.4 0-29.7-13.3-29.7-29.7l-0.1-67.8h0.2v-32.2h43.3c84.2 0 152.7-68.5 152.7-152.7 0-84.2-68.5-152.7-152.7-152.7h-43.3v-147.7c0-16.4 13.3-29.7 29.7-29.7h143.1v47.8c0 84.2 68.5 152.7 152.7 152.7s152.7-68.5 152.7-152.7v-47.9H650l-0.2-0.4z"  horiz-adv-x="1024" />
      
      <glyph glyph-name="canyupingji" unicode="&#58973;" d="M709.1-52.8c-9.9 0-18.8 5.2-23.4 13.6L528.1 246.3 353.9-29.8c-5.4-7.7-14.4-12.5-23.4-12.5h-0.7l-0.9 0.2-1.1 0.1c-9.5 0.8-18.2 7.3-22.1 16.4L246.3 117l-153-3.9h-1c-9.9 0-19.5 5.9-24 14.7-4.7 9.2-3.6 20.4 2.8 28.4l205.3 264-5.5 13.3c-14.6 35-22 72.2-22 110.5 0 159.8 130 289.9 289.9 289.9 159.8 0 289.9-130 289.9-289.9 0-44-9.6-86.3-28.7-125.7l-2.5-5.1v-13l151.8-238.5c5.2-8.1 5.5-18.4 0.8-27.1-4.6-8.5-13.3-13.9-22.9-14l-132.9-2.5-60.3-154c-3.7-9.4-12.6-16-22.7-16.8h-0.4c-0.5-0.1-1.3-0.1-1.8-0.1z m30.8 388.3c-35.1-34-78.5-58.6-125.4-71.4l-30.3-8.2 120.9-219L751 154.2c4.1 10.1 13.7 16.9 24.5 17.2l102.7 1.6-116.6 183.6-21.7-21.1zM264.2 170.8c10.9 0 20.7-6.5 24.8-16.5l46.7-111.9L473 260.2l-29.4 10.2c-44.9 15.5-85.9 42.5-118.6 78.1L305.3 370l-157-202.1 115.3 3h0.6z m274.6 609.5c-130.3 0-236.2-106-236.2-236.2 0-130.3 106-236.2 236.2-236.2S775 413.8 775 544c0 130.3-106 236.3-236.2 236.3zM661.5 615H424.8c-13.8 0-25 11.2-25 25s11.2 25 25 25h236.8c13.8 0 25-11.2 25-25-0.1-13.8-11.3-25-25.1-25zM661.5 512.2H424.8c-13.8 0-25 11.2-25 25s11.2 25 25 25h236.8c13.8 0 25-11.2 25-25s-11.3-25-25.1-25z"  horiz-adv-x="1024" />
      
      <glyph glyph-name="change" unicode="&#59030;" d="M607.744 293.888c145.408 33.792 192.512 142.848 192.512 250.368 0 158.72-128.512 287.232-287.232 287.232S225.792 702.976 225.792 544.256c0-107.52 58.88-200.704 146.432-250.368-142.336-56.32-243.2-195.072-243.2-357.376h64v2.048c1.024 152.576 96.768 263.168 252.928 310.784M355.328 386.56c-41.984 41.984-65.536 98.304-65.536 157.696 0 59.392 23.04 115.712 65.536 157.696 41.984 41.984 98.304 65.536 157.696 65.536s115.712-23.04 157.696-65.536c41.984-41.984 65.536-98.304 65.536-157.696 0-59.392-23.04-115.712-65.536-157.696-41.984-41.984-98.304-65.536-157.696-65.536-59.392 0-115.712 23.04-157.696 65.536zM928.256 137.728l-32.768 0.512c-1.536 0-169.984 1.536-498.176 1.536v40.96c238.592 0 392.192-0.512 459.776-1.024-12.288 14.848-30.72 32.768-56.832 48.128l20.992 35.328c66.048-39.936 91.648-93.184 92.672-95.232l14.336-30.208zM492.544-66.048c-66.048 39.936-91.648 93.184-92.672 95.232l-13.824 29.696 32.768-0.512c1.536 0 169.984-1.536 498.176-1.536v-40.96c-238.592 0-392.192 0.512-459.776 1.024 12.288-14.848 30.72-32.768 56.832-48.128l-21.504-34.816z"  horiz-adv-x="1024" />
      
      <glyph glyph-name="a-1-case" unicode="&#59089;" d="M938.666667-128H85.333333a85.333333 85.333333 0 0 0-85.333333 85.333333V640a85.333333 85.333333 0 0 0 85.333333 85.333333h213.333334V810.666667a85.333333 85.333333 0 0 0 85.333333 85.333333h256a85.333333 85.333333 0 0 0 85.333333-85.333333v-85.333334h213.333334a85.333333 85.333333 0 0 0 85.333333-85.333333v-682.666667a85.333333 85.333333 0 0 0-85.333333-85.333333zM640 810.666667H384v-85.333334h256V810.666667z m298.666667-554.666667h-213.333334a85.333333 85.333333 0 0 0-85.333333-85.333333H384a85.333333 85.333333 0 0 0-85.333333 85.333333H85.333333v85.333333h213.333334a85.333333 85.333333 0 0 0 85.333333 85.333334h256a85.333333 85.333333 0 0 0 85.333333-85.333334h213.333334V640H85.333333v-682.666667h853.333334v298.666667z m-298.666667 42.666667a42.666667 42.666667 0 0 1-42.666667 42.666666h-170.666666a42.666667 42.666667 0 0 1 0-85.333333h170.666666a42.666667 42.666667 0 0 1 42.666667 42.666667z"  horiz-adv-x="1024" />
      
      <glyph glyph-name="a-6-ren" unicode="&#59090;" d="M973.653333 298.666667a213.333333 213.333333 0 1 0 213.333334 213.333333 213.333333 213.333333 0 0 0-213.333334-213.333333z m0 341.333333a128 128 0 1 1 128-128 128 128 0 0 1-128 128zM610.56 71.68A248.96 248.96 0 0 1 376.32 213.333333c-192.426667 0-269.653333-155.861333-291.413333-341.333333H0c27.733333 231.466667 136.96 426.666667 376.32 426.666667a324.266667 324.266667 0 0 0 288-155.733334 304.170667 304.170667 0 0 1-53.76-71.253333zM376.32 384a256 256 0 1 0 256 256 256 256 0 0 0-256-256z m0 426.666667a170.666667 170.666667 0 1 1 170.666667-170.666667 170.666667 170.666667 0 0 1-170.666667 170.666667z m597.333333-597.333334c187.733333 0 272.213333-156.501333 293.12-341.333333H1182.293333c-15.36 139.136-70.826667 256-208.64 256s-193.28-116.949333-208.64-256h-84.48c20.906667 184.789333 105.386667 341.333333 293.12 341.333333z"  horiz-adv-x="1267" />
      
      <glyph glyph-name="a-8-calendar" unicode="&#59091;" d="M938.666667-128H85.333333a85.333333 85.333333 0 0 0-85.333333 85.333333V725.333333a85.333333 85.333333 0 0 0 85.333333 85.333334h85.333334v-85.333334H85.333333v-768h853.333334V725.333333h-85.333334V810.666667h85.333334a85.333333 85.333333 0 0 0 85.333333-85.333334v-768a85.333333 85.333333 0 0 0-85.333333-85.333333z m-213.333334 298.666667h85.333334a42.666667 42.666667 0 0 0 0-85.333334h-85.333334a42.666667 42.666667 0 0 0 0 85.333334z m0 170.666666h85.333334a42.666667 42.666667 0 0 0 0-85.333333h-85.333334a42.666667 42.666667 0 0 0 0 85.333333z m85.333334 85.333334h-85.333334a42.666667 42.666667 0 0 0 0 85.333333h85.333334a42.666667 42.666667 0 0 0 0-85.333333z m-42.666667 213.333333a42.666667 42.666667 0 0 0-42.666667 42.666667V853.333333a42.666667 42.666667 0 1 0 85.333334 0v-170.666666a42.666667 42.666667 0 0 0-42.666667-42.666667z m-170.666667 170.666667h85.333334v-85.333334h-85.333334V810.666667z m-128-640h85.333334a42.666667 42.666667 0 0 0 0-85.333334h-85.333334a42.666667 42.666667 0 0 0 0 85.333334z m0 170.666666h85.333334a42.666667 42.666667 0 0 0 0-85.333333h-85.333334a42.666667 42.666667 0 0 0 0 85.333333z m85.333334 85.333334h-85.333334a42.666667 42.666667 0 0 0 0 85.333333h85.333334a42.666667 42.666667 0 0 0 0-85.333333z m-42.666667 213.333333a42.666667 42.666667 0 0 0-42.666667 42.666667V853.333333a42.666667 42.666667 0 1 0 85.333334 0v-170.666666a42.666667 42.666667 0 0 0-42.666667-42.666667zM341.333333 810.666667h85.333334v-85.333334H341.333333V810.666667zM213.333333 170.666667h85.333334a42.666667 42.666667 0 0 0 0-85.333334H213.333333a42.666667 42.666667 0 0 0 0 85.333334z m0 170.666666h85.333334a42.666667 42.666667 0 0 0 0-85.333333H213.333333a42.666667 42.666667 0 0 0 0 85.333333z m85.333334 85.333334H213.333333a42.666667 42.666667 0 0 0 0 85.333333h85.333334a42.666667 42.666667 0 0 0 0-85.333333zM256 640a42.666667 42.666667 0 0 0-42.666667 42.666667V853.333333a42.666667 42.666667 0 1 0 85.333334 0v-170.666666a42.666667 42.666667 0 0 0-42.666667-42.666667z"  horiz-adv-x="1024" />
      
      <glyph glyph-name="a-2-toggles" unicode="&#59092;" d="M884.363636 430.545455H232.727273A232.727273 232.727273 0 1 0 232.727273 896h651.636363a232.727273 232.727273 0 1 0 0-465.454545z m0 372.363636H232.727273a139.636364 139.636364 0 1 1 0-279.272727h651.636363a139.636364 139.636364 0 1 1 0 279.272727z m0-186.181818h-46.545454a46.545455 46.545455 0 0 0 0 93.090909h46.545454a46.545455 46.545455 0 0 0 0-93.090909zM232.727273 337.454545h651.636363a232.727273 232.727273 0 0 0 0-465.454545H232.727273a232.727273 232.727273 0 0 0 0 465.454545z m0-372.363636h651.636363a139.636364 139.636364 0 0 1 0 279.272727H232.727273a139.636364 139.636364 0 0 1 0-279.272727z m0 186.181818h46.545454a46.545455 46.545455 0 0 0 0-93.090909H232.727273a46.545455 46.545455 0 0 0 0 93.090909z"  horiz-adv-x="1117" />
      
      <glyph glyph-name="huowu" unicode="&#59095;" d="M1024 686.08L512 896 0 686.08v-604.16L512-128l46.08 20.48h5.12v5.12l460.8 189.44V686.08zM512 506.88l-128 51.2 363.52 163.84 143.36-61.44-378.88-153.6z m148.48 250.88L291.84 593.92 128 660.48 512 819.2l148.48-61.44zM71.68 609.28l148.48-61.44v-307.2c0-20.48 15.36-35.84 35.84-35.84s35.84 15.36 35.84 35.84V517.12L491.52 435.2v-481.28L71.68 128V609.28zM563.2-30.72V450.56l384 158.72V128L563.2-30.72z"  horiz-adv-x="1024" />
      
      <glyph glyph-name="s4" unicode="&#59110;" d="M858.5-32.3H173.1c-26.2 0-50.8 9.3-69.4 26.3-19.4 17.7-30.1 41.5-30.1 67s10.7 49.4 30.1 67c18.6 16.9 43.3 26.3 69.4 26.3h685.4c26.2 0 50.8-9.3 69.4-26.3 19.4-17.7 30.1-41.5 30.1-67s-10.7-49.4-30.1-67c-18.6-17-43.2-26.3-69.4-26.3zM173.1 94.3c-21.8 0-39.5-14.9-39.5-33.3s17.7-33.3 39.5-33.3h685.4c21.8 0 39.5 14.9 39.5 33.3s-17.7 33.3-39.5 33.3H173.1zM240 213.9h-44c-25.9 0-50.3 10.2-68.9 28.8-18.6 18.6-28.8 43-28.8 68.9V730.1c0 25.9 10.2 50.3 28.8 68.9 18.6 18.6 43 28.8 68.9 28.8h44c53.9 0 97.7-43.8 97.7-97.7v-418.5c0-25.9-10.2-50.3-28.8-68.9s-43-28.8-68.9-28.8z m-43.9 553.9c-20.4 0-37.7-17.3-37.7-37.7v-418.5c0-20.4 17.3-37.7 37.7-37.7h44c20.4 0 37.7 17.3 37.7 37.7V730.1c0 20.8-16.9 37.7-37.7 37.7h-44zM555.6 214.8h-84.4c-20.8 0-40.2 8-54.8 22.6-14.6 14.6-22.6 34.1-22.6 54.8V472.5c0 20.8 8 40.2 22.6 54.8 14.6 14.6 34.1 22.6 54.8 22.6h84.4c20.8 0 40.2-8 54.8-22.6s22.6-34.1 22.6-54.8v-180.2c0-20.8-8-40.2-22.6-54.8-14.5-14.7-34-22.7-54.8-22.7z m-84.4 275.1c-9.8 0-17.5-7.7-17.5-17.5v-180.2c0-9.8 7.7-17.5 17.5-17.5h84.4c9.8 0 17.5 7.7 17.5 17.5V472.5c0 9.8-7.7 17.5-17.5 17.5h-84.4zM842 214.8h-65c-48.1 0-87.1 39.1-87.1 87.1V584.1c0 48.1 39.1 87.1 87.1 87.1h65c48.1 0 87.1-39.1 87.1-87.1v-282.2c0.1-48-39-87.1-87.1-87.1z m-65 396.5c-15 0-27.1-12.2-27.1-27.1V302c0-15 12.2-27.1 27.1-27.1h65c15 0 27.1 12.2 27.1 27.1V584.1c0 15-12.2 27.1-27.1 27.1h-65z"  horiz-adv-x="1024" />
      
      <glyph glyph-name="tims" unicode="&#58931;" d="M847.2 421.6h80.4c25 6.9 26.9 13.9 32 33.2l0.8 38.6-123.7 1.4c-65.5-13.1-76.6-57.6-79.8-106.4 14.5-74.2 41.9-87.8 101.1-94.5 27-2.9 26.7-48.6 11-63.7l-152.1 1.4V496.1l-79.7-2.7-90.4-119.5L513 419l-56.6 75.7 1.4-132.8 55.2-80.4 32.4-47.4 94.3 122.4 1.4-135.6 70.5-65.8h181.7c1.2 0.2 3.6 1.8 5.1 2.9 37.3 24.1 56.4 53.7 56.6 109.5-3 32.1-17 84.5-54.9 90.7-12.2 2-40.3 2.9-50.1 3.8-13.4 3-22.9 10.6-24 27.8-0.1 16.7 7 27.4 21.2 31.8zM283.4 529.8H388.2c16.6 2.1 27.5 11.2 29.7 30.9v42.2H64.2v-73.2H197v-374.6h52c27.6-1.5 35.6 14.6 34.4 36.5V529.8zM417.9 155.1L342.5 207V393.2h75.4zM413.5 488.2h-71v-71h43.6c15.1 0 27.4 12.2 27.4 27.4v43.6z"  horiz-adv-x="1024" />
      
      <glyph glyph-name="timsduihua" unicode="&#58959;" d="M920.8 774c-24.6 24.6-57.2 38.2-91.9 38.3H193.8c-34.7-0.2-67.4-13.8-91.9-38.3-24.6-24.6-38.2-57.2-38.3-91.9v-386.4c0.2-34.7 13.8-67.4 38.3-91.9 24.6-24.6 57.2-38.2 91.9-38.3h118.5v-237.1l237.2 237h279.4c34.7 0.2 67.4 13.8 91.9 38.3 24.6 24.6 38.2 57.2 38.3 91.9V682.1c-0.2 34.7-13.8 67.4-38.3 91.9z m-11-478.3c0.3-44.7-35.8-81.3-80.5-81.6h-301L360.8 46h-0.2V214.1H193.5c-21.6 0-42 8.4-57.3 23.7s-23.7 35.6-23.7 57.3V682c-0.1 21.5 8.1 41.8 23.2 57.1 15.1 15.3 35.3 23.8 56.8 24h636.7c44.2 0 80.3-35.9 80.6-80v-387.4zM777.8 513.6H841c19.7 5.4 21.2 10.9 25.2 26.1l0.6 30.4-97.3 1.1c-51.5-10.3-60.3-45.3-62.8-83.7 11.4-58.4 33-69.1 79.5-74.3 21.2-2.3 21-38.2 8.7-50.1l-119.6 1.1v208l-62.7-2.1-71.1-94-26.6 35.5-44.5 59.5 1.1-104.5 43.4-63.2 25.5-37.3 74.2 96.3 1.1-106.7 55.5-51.8h142.9c0.9 0.2 2.8 1.4 4 2.3 29.3 19 44.4 42.2 44.5 86.1-2.4 25.3-13.4 66.5-43.2 71.3-9.6 1.6-31.7 2.3-39.4 3-10.5 2.4-18 8.3-18.9 21.9 0 13.3 5.5 21.7 16.7 25.1zM334.3 598.8h82.5c13.1 1.7 21.6 8.8 23.4 24.3v33.2H161.9v-57.6h104.5V304h40.9c21.7-1.2 28 11.5 27.1 28.7-0.1 88.7-0.1 177.4-0.1 266.1zM440.1 304l-59.3 40.8V491.3h59.3zM436.6 566h-55.9v-55.9H415c11.9 0 21.6 9.6 21.6 21.6V566z"  horiz-adv-x="1024" />
      
      <glyph glyph-name="dianhua1" unicode="&#58985;" d="M185.5 806.7l-1.1-0.9c-0.4-0.3-0.9-0.6-1.3-0.9l-2.8-2c-2.7-2.2-5-4.8-6.9-7.7l-0.5-0.9-75.5-75.4c-91.7-91.7 14-305.8 229.7-521.5l15.4-15.3c208.8-203.8 412.7-301.3 502.6-214.8l79.9 79.9c45.4 43.2 47.2 115.9 3.5 161.9l-9.3 9.4-2.5 2.3-119.4 94.9c-46.7 35-112.1 29.9-152.8-12l-33.3-33.4-3.2 2c-81.8 52.1-151.1 121.5-203.2 203.3l-2.7 4.4 31.7 35.6-0.5-0.5c43.7 42.4 47.2 111.5 7.9 158l-90.7 114.1c-40.4 50.6-114 59.3-165 19.5z m118.7-56.4l93.9-118.1c14.4-19.8 14.7-45.6 2-65.1l-1.9-2.6-69-77.6 10.8-18.5c62.9-108 152.8-197.9 260.8-260.9l19.7-11.5 66.2 66.2 3.2 3.1c21.1 18.8 52.9 19.3 74.5 1.1l114.1-90.7 7.2-7.1c21.2-22.3 20.4-57.6-2-78.9l-79.9-80.1c-56.5-54.3-243.2 38-435 229.7l-7.8 8c-187.7 190-277.5 374.4-221.8 430.1l84 84-1.3-0.9c25.4 19.5 62.2 15.1 82.3-10.2z"  horiz-adv-x="1024" />
      
      <glyph glyph-name="youxiang" unicode="&#58986;" d="M955.7 656.9c-4.6 23.2-19 37-43.1 40.8-0.5 0-0.9 0.5-1.4 0.5-0.5 0-0.9 0.5-1.4 0.5l-0.8 0.3H147.2c-11.6 0-22.2-1.4-32.4-4.2l-1.4-0.5c-28.7-8.8-48.2-34.7-48.2-63.4v-454.3c0-18.1 6-36.1 17.1-50.5 0.9-1.4 2.3-2.8 3.7-4.6l0.5-0.5 0.9-0.9c17.6-19 43.1-30.1 69.9-30.1h722.4c36.6 0 68.5 25 75.9 59.3l0.5 1.4v0.5c0.9 5.1 1.9 10.2 1.9 14.8V643.9c-0.9 3.7-1.3 7.9-2.3 13zM356.5 399.4l-87.1-78.3c-50-44.9-100-89.4-150-134.8V592.5l237.1-193.1z m311.7 0.9c78.7 63.9 156.5 127.4 235.3 191.3v-397.8l-98.6 86.6c-46 40.3-91.4 80.1-136.7 119.9zM293.5 272l104.2 93.1c17.6-14.4 34.7-28.2 51.9-42.1 9.7-7.9 19.4-15.7 28.7-23.6l12.5-10.2c13.4-11.1 25.9-11.1 39.8 0 31.5 25.5 63 51.4 95.4 77.3l57.4-50.5c65.8-57.9 131.1-115.3 197.3-173.2H150c48.1 43.6 95.8 86.2 143.5 129.2z m217.7 69.5c-81.5 66.2-162.5 132.4-244.1 199.1L138.8 645.3c56 1.9 301.5 3.2 509.4 3.2 120.9 0 205.2-0.5 239-1.4l-376-305.6z"  horiz-adv-x="1024" />
      
      <glyph glyph-name="biaozhu" unicode="&#58990;" d="M512.4 832.7c-247.4 0-448-200.6-448-448s200.6-448 448-448 448 200.6 448 448-200.6 448-448 448z m0-809.4c-38.2 0-69.1 30.9-69.1 69.1s30.9 69.1 69.1 69.1c38.2 0 69.1-30.9 69.1-69.1s-30.9-69.1-69.1-69.1z m79.2 613.6l-64.8-418.4h-29L433 636.9c-3 17.1-4.5 31.4-4.5 42.9 1 36.9 27.2 55.4 78.4 55.4 1.9-0.1 3.7-0.2 5.5-0.3 1.8 0.1 3.7 0.2 5.5 0.3 51.2 0 77.3-18.5 78.2-55.4 0-11.4-1.5-25.7-4.5-42.9z"  horiz-adv-x="1024" />
      
      <glyph glyph-name="dizhi" unicode="&#59033;" d="M512.4 831.8C299.8 831.8 127 658.5 127 445.6c0-164.3 104.8-310.7 257.9-364.4l74-115.7c11.7-18.3 31.8-29.3 53.4-29.3s41.8 11 53.4 29.3l74 115.7C792.9 135 897.8 281.3 897.8 445.6c0 212.9-172.9 386.2-385.4 386.2zM598.9 135l-86.4-135.1L425.9 135c-135.8 37.8-235.5 162.6-235.5 310.7 0 178.1 144.1 322.6 321.9 322.6s321.9-144.4 321.9-322.6c0.2-148.1-99.5-272.9-235.3-310.7zM294 426.4c0 121 98.2 219.4 219 219.4 26.3 0 52.1-4.7 76.6-13.8 10.5-3.9 22.3 1.4 26.2 12s-1.4 22.3-11.9 26.2c-29.1 10.8-59.5 16.4-90.8 16.4-143.2 0-259.6-116.8-259.6-260.2 0-68.3 26.2-132.7 73.7-181.5 4-4.2 9.3-6.1 14.5-6.1 5.1 0 10.3 2 14.2 5.8 8.1 7.9 8.2 20.8 0.3 28.8-40.2 41-62.2 95.4-62.2 153zM767.9 475.8c-2.2 11-12.8 18.2-23.8 16.2-11-2.2-18.2-12.9-16.2-23.9 2.6-13.5 3.9-27.5 3.9-41.6 0-121-98.2-219.4-219-219.4-33.3 0-65.4 7.3-95.1 21.7-10.2 4.9-22.3 0.7-27.2-9.5-4.9-10.2-0.7-22.3 9.5-27.2 35.4-17.1 73.3-25.8 112.8-25.8 143.2 0 259.6 116.8 259.6 260.2 0.1 16.6-1.5 33.2-4.5 49.3zM700.7 539.3c3.8-6.3 10.6-9.9 17.5-9.9 3.6 0 7.2 1 10.5 2.9 9.6 5.8 12.8 18.3 7 28-15.4 25.8-35.1 48.4-58.3 67.5-8.7 7.1-21.5 5.9-28.6-2.8-7.1-8.7-5.8-21.5 2.8-28.7 19.5-16.1 36.1-35.2 49.1-57z"  horiz-adv-x="1024" />
      
      <glyph glyph-name="ren" unicode="&#59066;" d="M508.4 797.8c15.9 0 31.7-1.8 47.4-5.4 15.7-3.6 30.4-8.4 44.1-14.4s26-12.9 36.7-20.6c10.7-7.7 19.1-15.4 25.1-23.1 14.3-17.6 24.7-37 31.3-58.1 6.6-21.2 11.3-41.4 14-60.6 2.7-22 4.1-44.2 4.1-66.8 3.8-2.7 6.9-6.3 9.1-10.7 2.2-3.8 4-8.8 5.4-14.8s1.5-13.5 0.4-22.3c-1.1-11.5-3.4-20.7-7-27.6-3.6-6.9-7.6-12.2-12-16.1-4.9-4.4-10.2-7.4-15.7-9.1-2.7-9.3-5.5-18.1-8.2-26.4-2.7-7.1-5.9-14.2-9.5-21-3.6-6.9-7.6-12.2-12-16.1-10.4-8.2-19-15.3-25.6-21-6.6-5.8-11-15.5-13.2-29.3-1.6-8.2-2.2-16.6-1.6-25.1 0.5-8.5 2.9-17 7-25.6 4.1-8.5 10.4-16.6 19-24.3 8.5-7.7 20.5-14.6 35.9-20.6 13.7-5.5 28.7-10.4 44.9-14.8s32-9.5 47.4-15.3c15.4-5.8 29-12.9 40.8-21.4 11.8-8.5 20.2-20.2 25.1-35 2.7-8.8 4.8-19.6 6.2-32.6 1.4-12.9 2.1-26 2.1-39.2 0-13.2-1-25.6-2.9-37.1s-4.8-20.3-8.7-26.4c-2.7-3.8-10.6-7.7-23.5-11.5s-28.9-7.6-47.8-11.1c-19-3.6-40.1-6.7-63.5-9.5-23.4-2.7-46.9-5.1-70.5-7-23.6-1.9-46.3-3.4-68-4.5s-40.5-1.6-56.5-1.6c-15.9 0-34.5 0.5-55.6 1.6-21.2 1.1-43 2.6-65.5 4.5s-44.9 4.1-67.2 6.6-42.5 5.1-60.6 7.8-33.5 5.5-46.2 8.2c-12.6 2.7-20.6 5.5-23.9 8.2-5.5 4.4-9.8 17.9-12.8 40.4s-1.8 51.7 3.7 87.4c2.7 20.3 10.9 35.9 24.3 46.6 13.5 10.7 29.1 19.2 47 25.6 17.9 6.3 36.4 12 55.6 16.9 19.2 4.9 36.3 12.1 51.1 21.4 11.5 7.1 20.3 14 26.4 20.6 6 6.6 10.4 13.2 13.2 19.8 2.7 6.6 4.1 13.5 4.1 20.6 0 7.1-0.3 15.1-0.8 23.9-1.1 12.6-5.5 22.7-13.2 30.1-7.7 7.4-16.2 15-25.6 22.7-4.4 3.8-8.2 9.2-11.5 16.1-3.3 6.9-6.3 13.9-9.1 21-2.7 8.2-5.5 17-8.2 26.4-3.8 1.1-7.7 3-11.5 5.8-3.3 2.7-6.9 6.6-10.7 11.5-3.8 4.9-7.1 12.1-9.9 21.4-3.3 9.3-4.5 17.9-3.7 25.6 0.8 7.7 2.3 14.3 4.5 19.8 2.2 6 5.8 11.8 10.7 17.3-0.5 20.9 0.5 41.8 3.3 62.7 2.2 17.6 6.2 36.5 12 56.9 5.8 20.3 14.4 38.5 26 54.4 10.4 15.4 22.1 27.9 35 37.5 12.9 9.6 26.1 17.2 39.6 22.7s26.9 9.2 40.4 11.1 26.7 2.9 39.3 2.9z"  horiz-adv-x="1024" />
      
      <glyph glyph-name="password" unicode="&#59067;" d="M805.888 541.184h-38.4v24.064c0 68.096-26.624 132.608-74.752 180.736-48.128 48.128-112.64 74.752-180.736 74.752s-132.608-26.624-180.736-74.752C282.624 697.856 256 633.344 256 565.248v-24.064h-38.4c-51.2 0-93.184-41.472-93.184-93.184v-385.536c0-51.2 41.472-93.184 93.184-93.184h588.288c51.2 0 93.184 41.472 93.184 93.184V448c0 51.712-41.984 93.184-93.184 93.184z m-228.864-215.04c0-20.48-5.12-35.84-15.872-46.592-5.632-5.632-12.8-9.728-20.992-12.288v-109.056c0-17.92-9.728-27.136-27.136-27.136h-1.024c-17.92 0-27.136 9.728-27.136 27.136v109.568c-8.704 2.56-15.36 6.656-20.992 12.288-10.752 10.24-15.872 26.112-15.872 46.592v3.072c0 20.48 5.632 35.84 15.872 46.592s26.112 15.872 46.592 15.872h3.072c20.48 0 36.352-5.12 47.616-16.384 10.752-10.24 15.872-26.112 15.872-46.592v-3.072z m138.24 215.04H308.224v24.064c0 54.272 20.992 105.472 59.904 143.872S457.216 769.024 512 769.024s105.472-20.992 143.872-59.904 59.392-89.6 59.392-143.872v-24.064z"  horiz-adv-x="1024" />
      
    </font>
</defs>
</svg>
